<?xml version="1.0" encoding="iso-8859-1"?>
<!-- Uploaded to: SVG Repo, www.svgrepo.com, Generator: SVG Repo Mixer Tools -->
<svg fill="#000000" height="800px" width="800px" version="1.1" id="Layer_1" xmlns="http://www.w3.org/2000/svg" xmlns:xlink="http://www.w3.org/1999/xlink" 
	 viewBox="0 0 512.001 512.001" xml:space="preserve">
<g>
	<g>
		<path d="M495.447,112.145c-6.507,0-389.538,0-391.646,0c-8.248,0-16.125,3.938-21.074,10.535
			c-4.949,6.597-6.526,15.263-4.219,23.179l39.21,134.544c-12.504-12.177-29.563-19.7-48.355-19.7
			C31.117,260.705,0,291.822,0,330.071c0,38.249,31.117,69.366,69.366,69.366c37.124,0,67.525-29.316,69.281-66.014L270.1,305.367
			v43.812c0,27.943,22.734,50.678,50.678,50.678c21.731,0,41.021-13.829,47.995-34.412l74.626-220.192h52.05
			c9.141,0,16.553-7.411,16.553-16.553S504.589,112.145,495.447,112.145z M69.366,366.331c-19.995,0-36.26-16.267-36.26-36.26
			s16.266-36.26,36.26-36.26c11.531,0,21.813,5.416,28.458,13.83l-31.346,6.619c-8.944,1.888-14.665,10.671-12.775,19.615
			c1.889,8.945,10.672,14.665,19.615,12.775l30.876-6.519C99.822,355.244,85.869,366.331,69.366,366.331z M337.418,354.817
			c-2.419,7.136-9.107,11.932-16.642,11.932c-9.689,0-17.572-7.883-17.572-17.572V298.3l57.53-12.279L337.418,354.817z
			 M156.527,295.244l-43.712-149.993h295.463L372.08,249.728L156.527,295.244z"/>
	</g>
</g>
</svg>